<svg width="24" height="17" viewBox="0 0 24 17" fill="none" xmlns="http://www.w3.org/2000/svg">
<path d="M2.62207 16.8809C1.96582 16.8809 1.46484 16.7139 1.11914 16.3799C0.779297 16.0518 0.609375 15.5771 0.609375 14.9561V7.40625C0.609375 6.7793 0.779297 6.30176 1.11914 5.97363C1.46484 5.63965 1.96582 5.47266 2.62207 5.47266H5.11816C5.77441 5.47266 6.27246 5.63965 6.6123 5.97363C6.95801 6.30176 7.13086 6.7793 7.13086 7.40625V14.9561C7.13086 15.5771 6.95801 16.0518 6.6123 16.3799C6.27246 16.7139 5.77441 16.8809 5.11816 16.8809H2.62207ZM10.7432 16.8809C10.0869 16.8809 9.58594 16.7139 9.24023 16.3799C8.90039 16.0518 8.73047 15.5771 8.73047 14.9561V4.83984C8.73047 4.21289 8.90039 3.73242 9.24023 3.39844C9.58594 3.06445 10.0869 2.89746 10.7432 2.89746H13.2393C13.8955 2.89746 14.3936 3.06445 14.7334 3.39844C15.0791 3.73242 15.252 4.21289 15.252 4.83984V14.9561C15.252 15.5771 15.0791 16.0518 14.7334 16.3799C14.3936 16.7139 13.8955 16.8809 13.2393 16.8809H10.7432ZM18.8643 16.8809C18.2139 16.8809 17.7158 16.7139 17.3701 16.3799C17.0303 16.0518 16.8604 15.5771 16.8604 14.9561V2.27344C16.8604 1.65234 17.0303 1.1748 17.3701 0.84082C17.7158 0.506836 18.2139 0.339844 18.8643 0.339844H21.3604C22.0225 0.339844 22.5234 0.506836 22.8633 0.84082C23.209 1.1748 23.3818 1.65234 23.3818 2.27344V14.9561C23.3818 15.5771 23.209 16.0518 22.8633 16.3799C22.5234 16.7139 22.0225 16.8809 21.3604 16.8809H18.8643Z" fill="#F4F4F4"/>
</svg>
