<svg width="13" height="13" viewBox="0 0 13 13" fill="none" xmlns="http://www.w3.org/2000/svg">
<path d="M4.15625 4.87109C3.80078 4.87109 3.47461 4.7832 3.17773 4.60742C2.88086 4.43164 2.64258 4.19531 2.46289 3.89844C2.28711 3.60156 2.19922 3.27539 2.19922 2.91992C2.19922 2.56445 2.28711 2.23828 2.46289 1.94141C2.64258 1.64453 2.88086 1.4082 3.17773 1.23242C3.47461 1.05273 3.80078 0.962891 4.15625 0.962891C4.51172 0.962891 4.83789 1.05273 5.13477 1.23242C5.43164 1.4082 5.66797 1.64453 5.84375 1.94141C6.02344 2.23828 6.11328 2.56445 6.11328 2.91992C6.11328 3.27539 6.02344 3.60156 5.84375 3.89844C5.66797 4.19531 5.43164 4.43164 5.13477 4.60742C4.83789 4.7832 4.51172 4.87109 4.15625 4.87109ZM4.15625 3.92773C4.33984 3.92773 4.50781 3.88281 4.66016 3.79297C4.81641 3.69922 4.93945 3.57617 5.0293 3.42383C5.12305 3.27148 5.16992 3.10352 5.16992 2.91992C5.16992 2.73633 5.12305 2.56836 5.0293 2.41602C4.93945 2.25977 4.81641 2.13672 4.66016 2.04688C4.50781 1.95312 4.33984 1.90625 4.15625 1.90625C3.97266 1.90625 3.80273 1.95312 3.64648 2.04688C3.49414 2.13672 3.37109 2.25977 3.27734 2.41602C3.1875 2.56836 3.14258 2.73633 3.14258 2.91992C3.14258 3.10352 3.1875 3.27148 3.27734 3.42383C3.37109 3.57617 3.49414 3.69922 3.64648 3.79297C3.80273 3.88281 3.97266 3.92773 4.15625 3.92773ZM8.45117 4.87109C8.0957 4.87109 7.76953 4.7832 7.47266 4.60742C7.17578 4.43164 6.9375 4.19531 6.75781 3.89844C6.58203 3.60156 6.49414 3.27539 6.49414 2.91992C6.49414 2.56445 6.58203 2.23828 6.75781 1.94141C6.9375 1.64453 7.17578 1.4082 7.47266 1.23242C7.76953 1.05273 8.0957 0.962891 8.45117 0.962891C8.80664 0.962891 9.13281 1.05273 9.42969 1.23242C9.72656 1.4082 9.96289 1.64453 10.1387 1.94141C10.3184 2.23828 10.4082 2.56445 10.4082 2.91992C10.4082 3.27539 10.3184 3.60156 10.1387 3.89844C9.96289 4.19531 9.72656 4.43164 9.42969 4.60742C9.13281 4.7832 8.80664 4.87109 8.45117 4.87109ZM8.45117 3.92773C8.63477 3.92773 8.80273 3.88281 8.95508 3.79297C9.11133 3.69922 9.23438 3.57617 9.32422 3.42383C9.41797 3.27148 9.46484 3.10352 9.46484 2.91992C9.46484 2.73633 9.41797 2.56836 9.32422 2.41602C9.23438 2.25977 9.11133 2.13672 8.95508 2.04688C8.80273 1.95312 8.63477 1.90625 8.45117 1.90625C8.26758 1.90625 8.09766 1.95312 7.94141 2.04688C7.78906 2.13672 7.66602 2.25977 7.57227 2.41602C7.48242 2.56836 7.4375 2.73633 7.4375 2.91992C7.4375 3.10352 7.48242 3.27148 7.57227 3.42383C7.66602 3.57617 7.78906 3.69922 7.94141 3.79297C8.09766 3.88281 8.26758 3.92773 8.45117 3.92773ZM2.00586 8.72656C1.65039 8.72656 1.32422 8.63867 1.02734 8.46289C0.730469 8.2832 0.492188 8.04492 0.3125 7.74805C0.136719 7.45117 0.0488281 7.125 0.0488281 6.76953C0.0488281 6.41406 0.136719 6.08789 0.3125 5.79102C0.492188 5.49414 0.730469 5.25781 1.02734 5.08203C1.32422 4.90234 1.65039 4.8125 2.00586 4.8125C2.36133 4.8125 2.6875 4.90234 2.98438 5.08203C3.28125 5.25781 3.51953 5.49414 3.69922 5.79102C3.87891 6.08789 3.96875 6.41406 3.96875 6.76953C3.96875 7.125 3.87891 7.45117 3.69922 7.74805C3.51953 8.04492 3.28125 8.2832 2.98438 8.46289C2.6875 8.63867 2.36133 8.72656 2.00586 8.72656ZM2.00586 7.7832C2.18945 7.7832 2.35742 7.73828 2.50977 7.64844C2.66602 7.55469 2.79102 7.43164 2.88477 7.2793C2.97852 7.12305 3.02539 6.95312 3.02539 6.76953C3.02539 6.58594 2.97852 6.41797 2.88477 6.26562C2.79102 6.10938 2.66602 5.98633 2.50977 5.89648C2.35742 5.80273 2.18945 5.75586 2.00586 5.75586C1.82227 5.75586 1.65234 5.80273 1.49609 5.89648C1.34375 5.98633 1.2207 6.10938 1.12695 6.26562C1.03711 6.41797 0.992188 6.58594 0.992188 6.76953C0.992188 6.95312 1.03711 7.12305 1.12695 7.2793C1.2207 7.43164 1.34375 7.55469 1.49609 7.64844C1.65234 7.73828 1.82227 7.7832 2.00586 7.7832ZM6.30664 8.72656C5.94727 8.72656 5.61914 8.63867 5.32227 8.46289C5.02539 8.2832 4.78711 8.04492 4.60742 7.74805C4.43164 7.45117 4.34375 7.125 4.34375 6.76953C4.34375 6.41406 4.43164 6.08789 4.60742 5.79102C4.78711 5.49414 5.02539 5.25781 5.32227 5.08203C5.61914 4.90234 5.94727 4.8125 6.30664 4.8125C6.66211 4.8125 6.98828 4.90234 7.28516 5.08203C7.58203 5.25781 7.81836 5.49414 7.99414 5.79102C8.17383 6.08789 8.26367 6.41406 8.26367 6.76953C8.26367 7.125 8.17383 7.45117 7.99414 7.74805C7.81836 8.04492 7.58203 8.2832 7.28516 8.46289C6.98828 8.63867 6.66211 8.72656 6.30664 8.72656ZM6.30664 7.7832C6.49023 7.7832 6.6582 7.73828 6.81055 7.64844C6.96289 7.55469 7.08594 7.43164 7.17969 7.2793C7.27344 7.12305 7.32031 6.95312 7.32031 6.76953C7.32031 6.58594 7.27344 6.41797 7.17969 6.26562C7.08594 6.10938 6.96289 5.98633 6.81055 5.89648C6.6582 5.80273 6.49023 5.75586 6.30664 5.75586C6.11914 5.75586 5.94922 5.80273 5.79688 5.89648C5.64453 5.98633 5.52148 6.10938 5.42773 6.26562C5.33398 6.41797 5.28711 6.58594 5.28711 6.76953C5.28711 6.95312 5.33398 7.12305 5.42773 7.2793C5.52148 7.43164 5.64453 7.55469 5.79688 7.64844C5.94922 7.73828 6.11914 7.7832 6.30664 7.7832ZM10.6016 8.72656C10.2461 8.72656 9.91992 8.63867 9.62305 8.46289C9.32617 8.2832 9.08789 8.04492 8.9082 7.74805C8.72852 7.45117 8.63867 7.125 8.63867 6.76953C8.63867 6.41406 8.72852 6.08789 8.9082 5.79102C9.08789 5.49414 9.32617 5.25781 9.62305 5.08203C9.91992 4.90234 10.2461 4.8125 10.6016 4.8125C10.957 4.8125 11.2832 4.90234 11.5801 5.08203C11.877 5.25781 12.1133 5.49414 12.2891 5.79102C12.4688 6.08789 12.5586 6.41406 12.5586 6.76953C12.5586 7.125 12.4688 7.45117 12.2891 7.74805C12.1133 8.04492 11.877 8.2832 11.5801 8.46289C11.2832 8.63867 10.957 8.72656 10.6016 8.72656ZM10.6016 7.7832C10.7852 7.7832 10.9531 7.73828 11.1055 7.64844C11.2617 7.55469 11.3848 7.43164 11.4746 7.2793C11.5684 7.12305 11.6152 6.95312 11.6152 6.76953C11.6152 6.58594 11.5684 6.41797 11.4746 6.26562C11.3848 6.10938 11.2617 5.98633 11.1055 5.89648C10.9531 5.80273 10.7852 5.75586 10.6016 5.75586C10.418 5.75586 10.248 5.80273 10.0918 5.89648C9.93945 5.98633 9.81641 6.10938 9.72266 6.26562C9.62891 6.41797 9.58203 6.58594 9.58203 6.76953C9.58203 6.95312 9.62891 7.12305 9.72266 7.2793C9.81641 7.43164 9.93945 7.55469 10.0918 7.64844C10.248 7.73828 10.418 7.7832 10.6016 7.7832ZM4.15625 12.5762C3.80078 12.5762 3.47461 12.4863 3.17773 12.3066C2.88086 12.1309 2.64258 11.8945 2.46289 11.5977C2.28711 11.3008 2.19922 10.9746 2.19922 10.6191C2.19922 10.2637 2.28711 9.9375 2.46289 9.64062C2.64258 9.34375 2.88086 9.10742 3.17773 8.93164C3.47461 8.75195 3.80078 8.66211 4.15625 8.66211C4.51172 8.66211 4.83789 8.75195 5.13477 8.93164C5.43164 9.10742 5.66797 9.34375 5.84375 9.64062C6.02344 9.9375 6.11328 10.2637 6.11328 10.6191C6.11328 10.9707 6.02344 11.2949 5.84375 11.5918C5.66797 11.8887 5.43164 12.127 5.13477 12.3066C4.83789 12.4863 4.51172 12.5762 4.15625 12.5762ZM4.15625 11.6328C4.33984 11.6328 4.50781 11.5859 4.66016 11.4922C4.81641 11.4023 4.93945 11.2793 5.0293 11.123C5.12305 10.9707 5.16992 10.8027 5.16992 10.6191C5.16992 10.4355 5.12305 10.2676 5.0293 10.1152C4.93945 9.96289 4.81641 9.83984 4.66016 9.74609C4.50781 9.65234 4.33984 9.60547 4.15625 9.60547C3.97266 9.60547 3.80273 9.65234 3.64648 9.74609C3.49414 9.83984 3.37109 9.96289 3.27734 10.1152C3.1875 10.2676 3.14258 10.4355 3.14258 10.6191C3.14258 10.8027 3.1875 10.9707 3.27734 11.123C3.37109 11.2793 3.49414 11.4023 3.64648 11.4922C3.80273 11.5859 3.97266 11.6328 4.15625 11.6328ZM8.45117 12.5762C8.0957 12.5762 7.76953 12.4863 7.47266 12.3066C7.17578 12.1309 6.9375 11.8945 6.75781 11.5977C6.58203 11.3008 6.49414 10.9746 6.49414 10.6191C6.49414 10.2637 6.58203 9.9375 6.75781 9.64062C6.9375 9.34375 7.17578 9.10742 7.47266 8.93164C7.76953 8.75195 8.0957 8.66211 8.45117 8.66211C8.80664 8.66211 9.13281 8.75195 9.42969 8.93164C9.72656 9.10742 9.96289 9.34375 10.1387 9.64062C10.3184 9.9375 10.4082 10.2637 10.4082 10.6191C10.4082 10.9746 10.3184 11.3008 10.1387 11.5977C9.96289 11.8945 9.72656 12.1309 9.42969 12.3066C9.13281 12.4863 8.80664 12.5762 8.45117 12.5762ZM8.45117 11.6328C8.63477 11.6328 8.80273 11.5859 8.95508 11.4922C9.11133 11.4023 9.23438 11.2793 9.32422 11.123C9.41797 10.9707 9.46484 10.8027 9.46484 10.6191C9.46484 10.4355 9.41797 10.2676 9.32422 10.1152C9.23438 9.96289 9.11133 9.83984 8.95508 9.74609C8.80273 9.65234 8.63477 9.60547 8.45117 9.60547C8.26758 9.60547 8.09766 9.65234 7.94141 9.74609C7.78906 9.83984 7.66602 9.96289 7.57227 10.1152C7.48242 10.2676 7.4375 10.4355 7.4375 10.6191C7.4375 10.8027 7.48242 10.9707 7.57227 11.123C7.66602 11.2793 7.78906 11.4023 7.94141 11.4922C8.09766 11.5859 8.26758 11.6328 8.45117 11.6328Z" fill="white"/>
</svg>
