<svg width="16" height="16" viewBox="0 0 16 16" fill="none" xmlns="http://www.w3.org/2000/svg">
<path d="M7.87695 15.7778C6.8418 15.7778 5.86768 15.5801 4.95459 15.1846C4.0415 14.7939 3.23584 14.2495 2.5376 13.5513C1.84424 12.853 1.2998 12.0474 0.904297 11.1343C0.508789 10.2212 0.311035 9.24707 0.311035 8.21191C0.311035 7.17676 0.508789 6.20264 0.904297 5.28955C1.2998 4.37646 1.84424 3.57324 2.5376 2.87988C3.23584 2.18164 4.03906 1.63477 4.94727 1.23926C5.86035 0.84375 6.83447 0.645996 7.86963 0.645996C8.90967 0.645996 9.88623 0.84375 10.7993 1.23926C11.7124 1.63477 12.5181 2.18164 13.2163 2.87988C13.9146 3.57324 14.4614 4.37646 14.8569 5.28955C15.2524 6.20264 15.4502 7.17676 15.4502 8.21191C15.4502 9.24707 15.2524 10.2212 14.8569 11.1343C14.4614 12.0474 13.9146 12.853 13.2163 13.5513C12.5181 14.2495 11.7124 14.7939 10.7993 15.1846C9.88623 15.5801 8.91211 15.7778 7.87695 15.7778ZM4.13428 9.99902C4.26611 10.1357 4.42236 10.2065 4.60303 10.2114C4.78369 10.2114 4.93506 10.1455 5.05713 10.0137L7.88428 7.00342L10.7114 10.0137C10.8335 10.1455 10.9824 10.2114 11.1582 10.2114C11.3389 10.2065 11.4976 10.1357 11.6343 9.99902C11.7515 9.88672 11.8076 9.74268 11.8027 9.56689C11.7979 9.39111 11.7319 9.23486 11.605 9.09814L8.69727 6C8.53125 5.81934 8.35303 5.70215 8.1626 5.64844C7.97705 5.58984 7.78906 5.58984 7.59863 5.64844C7.41309 5.70703 7.23486 5.82422 7.06396 6L4.16357 9.09814C4.03174 9.23486 3.96338 9.39111 3.9585 9.56689C3.95361 9.74268 4.01221 9.88672 4.13428 9.99902Z" fill="#26B77B"/>
</svg>
