<svg width="16" height="16" viewBox="0 0 16 16" fill="none" xmlns="http://www.w3.org/2000/svg">
<path d="M7.87695 15.7778C6.8418 15.7778 5.86768 15.5801 4.95459 15.1846C4.0415 14.7939 3.23584 14.2495 2.5376 13.5513C1.84424 12.853 1.2998 12.0474 0.904297 11.1343C0.508789 10.2212 0.311035 9.24707 0.311035 8.21191C0.311035 7.17676 0.508789 6.20264 0.904297 5.28955C1.2998 4.37646 1.84424 3.57324 2.5376 2.87988C3.23584 2.18164 4.03906 1.63477 4.94727 1.23926C5.86035 0.84375 6.83447 0.645996 7.86963 0.645996C8.90967 0.645996 9.88623 0.84375 10.7993 1.23926C11.7124 1.63477 12.5181 2.18164 13.2163 2.87988C13.9146 3.57324 14.4614 4.37646 14.8569 5.28955C15.2524 6.20264 15.4502 7.17676 15.4502 8.21191C15.4502 9.24707 15.2524 10.2212 14.8569 11.1343C14.4614 12.0474 13.9146 12.853 13.2163 13.5513C12.5181 14.2495 11.7124 14.7939 10.7993 15.1846C9.88623 15.5801 8.91211 15.7778 7.87695 15.7778ZM8.70459 10.6216L11.6123 7.51611C11.7393 7.38428 11.8052 7.23047 11.8101 7.05469C11.8149 6.87402 11.7588 6.72754 11.6416 6.61523C11.5049 6.4834 11.3462 6.41504 11.1655 6.41016C10.9897 6.40527 10.8408 6.46875 10.7188 6.60059L7.8916 9.60352L5.06445 6.60059C4.94238 6.46875 4.78857 6.40527 4.60303 6.41016C4.42236 6.41016 4.26611 6.47852 4.13428 6.61523C4.01709 6.73242 3.96094 6.87891 3.96582 7.05469C3.9707 7.23047 4.03662 7.38428 4.16357 7.51611L7.07129 10.6216C7.24219 10.7925 7.42041 10.9072 7.60596 10.9658C7.79639 11.0244 7.98438 11.0269 8.16992 10.9731C8.36035 10.9146 8.53857 10.7974 8.70459 10.6216Z" fill="#FF5959"/>
</svg>
